PathFileType	4	(X/Y/Z)	C:\Users\chris\Documents\GitHub\baseballds\vids\pitch5_Sports2D\pitch5_Sports2D_m_person01.trc
DataRate	CameraRate	NumFrames	NumMarkers	Units	OrigDataRate	OrigDataStartFrame	OrigNumFrames
30	30	12	22	m	30	74	149
Frame#	Time	Hip			RHip			RKnee			RAnkle			RBigToe			RSmallToe			RHeel			LHip			LKnee			LAnkle			LBigToe			LSmallToe			LHeel			Neck			Head			Nose			RShoulder			RElbow			RWrist			LShoulder			LElbow			LWrist		
		X1	Y1	Z1	X2	Y2	Z2	X3	Y3	Z3	X4	Y4	Z4	X5	Y5	Z5	X6	Y6	Z6	X7	Y7	Z7	X8	Y8	Z8	X9	Y9	Z9	X10	Y10	Z10	X11	Y11	Z11	X12	Y12	Z12	X13	Y13	Z13	X14	Y14	Z14	X15	Y15	Z15	X16	Y16	Z16	X17	Y17	Z17	X18	Y18	Z18	X19	Y19	Z19	X20	Y20	Z20	X21	Y21	Z21	X22	Y22	Z22
74	2.466666666666667	0.8780244906880904	0.9503277598131157	0.0	0.8282259323244088	0.9374705926208352	0.0	0.8063400067317018	0.7224091002240155	0.0	0.7917100726394621	0.5207604726705122	0.0	0.8385837834870894	0.45722811223968884	0.0	0.8001800439762233	0.4511939421446002	0.0	0.7786795988506405	0.4898876439357844	0.0	0.9290107830165102	0.9440504109540147	0.0	0.9442542426437417	0.7365290795123487	0.0	0.9541664526462973	0.5615121717876841	0.0	1.0605465189031402	0.5212365207078975	0.0	1.0514487146914284	0.5312363654452519	0.0	0.9373505607536762	0.5229000157752753	0.0	0.8558899670034155	1.2896057849902192	0.0	0.9037323700734097	1.4215556308648285	0.0	0.9411976775510719	1.3377741966702819	0.0	0.7635125743910145	1.2447007457877697	0.0	0.7204543971774694	1.0929674347965763	0.0	0.7563708340815951	0.9740474293866372	0.0	0.9112753219283487	1.2503708867557726	0.0	0.9075917541399652	1.116220110519987	0.0	0.8320506782217356	1.0141087706618404	0.0
75	2.5	0.8785201382953586	0.9512859602224573	0.0	0.8286572556168339	0.9411291154219208	0.0	0.8076097184227489	0.7242611052437598	0.0	0.791836821670035	0.5208983958825102	0.0	0.8386078984392293	0.4560514326619343	0.0	0.8000952321054491	0.4506600255788295	0.0	0.7786513568086185	0.48970093062206105	0.0	0.9291391401418421	0.947320256535307	0.0	0.9452148442282182	0.7394046659213851	0.0	0.9546331809355334	0.562096503108024	0.0	1.0605046619101564	0.5200695312369151	0.0	1.0509737698279946	0.5307610610489797	0.0	0.9382171013435369	0.5245285453402883	0.0	0.8556182760196699	1.2895678792858623	0.0	0.9056581575036579	1.4238284229450944	0.0	0.9409817831852006	1.340350685713619	0.0	0.7623717510501671	1.2458224945114449	0.0	0.7199171554744371	1.0931304007052127	0.0	0.7563118052603901	0.9745446764665222	0.0	0.9110230781215753	1.2510756338731714	0.0	0.9036698904193168	1.1156560917167333	0.0	0.8328647723923895	1.014963730940471	0.0
76	2.533333333333333	0.877880706158202	0.951789337266006	0.0	0.8278773942822599	0.9433606771880384	0.0	0.8083430120083347	0.725756437859209	0.0	0.7919223388435882	0.5216612959464674	0.0	0.8393040162231773	0.4560882123683764	0.0	0.8007790882233682	0.4512886335678157	0.0	0.7790417783360635	0.4898393090066838	0.0	0.9284233615939946	0.9491517324749807	0.0	0.9458292661892669	0.7424200688568297	0.0	0.9553847176889845	0.5634769912635845	0.0	1.0608057706242697	0.5203085705713322	0.0	1.0508767397202992	0.5317064688153831	0.0	0.9388161652232603	0.5263148169102737	0.0	0.8552901561520809	1.289281230527082	0.0	0.9064613979314916	1.4243676118648765	0.0	0.9404132169512691	1.3411938984725496	0.0	0.7609553398499919	1.2461961861288642	0.0	0.7190293272540454	1.0922575436577122	0.0	0.7567203944214351	0.973357024056747	0.0	0.9112197248084469	1.2510190127842271	0.0	0.9047631004956606	1.1166177708903946	0.0	0.8359171009207503	1.017953837770178	0.0
77	2.5666666666666664	0.8761982539049916	0.9517354186920458	0.0	0.8264301781368816	0.9421819537915933	0.0	0.8091030211719314	0.7263991144453934	0.0	0.7929446759461914	0.5227892985097716	0.0	0.8405660980679753	0.45746943050368527	0.0	0.8021649912729661	0.4530146400371625	0.0	0.7799149682556711	0.4901624891775259	0.0	0.9281856457689446	0.9483883221087482	0.0	0.9462238075783926	0.7436312174113324	0.0	0.9564104238408301	0.5655218323198107	0.0	1.0606895964081975	0.5222280427245668	0.0	1.0508008506497089	0.5337606790845352	0.0	0.9391213507016934	0.5269681312746348	0.0	0.8535856692621089	1.2892310975879289	0.0	0.9044649669087368	1.422593909681608	0.0	0.9392447298964407	1.3391236308898882	0.0	0.7587320049595259	1.2450579857619206	0.0	0.7183322551180018	1.0903597967286425	0.0	0.7567621709763995	0.9710370431333374	0.0	0.9102430460293558	1.2509716845897478	0.0	0.9092157190543954	1.118781942109337	0.0	0.8372647360406704	1.0204769710888082	0.0
78	2.6	0.8735719906614924	0.9524537654590554	0.0	0.8241866903430042	0.9419516230454102	0.0	0.8095622247831918	0.7278532093487897	0.0	0.7941095917309658	0.5238852743001304	0.0	0.8412642654862236	0.45903659750597353	0.0	0.8022990136177607	0.45423615420062835	0.0	0.7808551638492569	0.4909771968803957	0.0	0.9275985298907938	0.9488756649807011	0.0	0.9467773948194308	0.7456296316684858	0.0	0.9574409319633399	0.5670290667652851	0.0	1.0615420145764742	0.524097247841793	0.0	1.0517695585485418	0.5352104874393366	0.0	0.9390893820696093	0.5268779414896332	0.0	0.8506168625536078	1.2892949035549488	0.0	0.9008352707664404	1.4220559888695765	0.0	0.9372023983496108	1.338427032865209	0.0	0.7554075082823579	1.243273143388945	0.0	0.7166915562781774	1.0883689037873367	0.0	0.755458788483863	0.9693954371961376	0.0	0.9086006308104134	1.251156813178603	0.0	0.9126436197676563	1.1198480715814867	0.0	0.8372141775374794	1.0211186133545231	0.0
79	2.6333333333333333	0.8707223755326093	0.9552164761531389	0.0	0.821232398572017	0.9467308282926695	0.0	0.8092002925556397	0.7316085905455929	0.0	0.7944879774446227	0.5244762576027276	0.0	0.8409658202052773	0.4599441796279938	0.0	0.8007422341652792	0.4544348905221088	0.0	0.7817737984783995	0.4923868792135854	0.0	0.9251789646434506	0.953912985585593	0.0	0.9472408689497049	0.751073091613978	0.0	0.9578459122651308	0.5674650914515199	0.0	1.0643871777721556	0.5248281555950071	0.0	1.054476683555729	0.5353167968533602	0.0	0.9391099888728229	0.5271231921132022	0.0	0.847230200096004	1.2893309991150415	0.0	0.8977431833569121	1.424714214647715	0.0	0.9341632355295482	1.3419942143374377	0.0	0.7512158042131395	1.241967141161079	0.0	0.7129215757347875	1.0869900873127705	0.0	0.75270681620581	0.9686269551718619	0.0	0.9068763310308406	1.2514734270763612	0.0	0.9116157073314419	1.1201172945854296	0.0	0.8368718951437016	1.0205292721458354	0.0
80	2.6666666666666665	0.8682254235465912	0.9583964991189791	0.0	0.8181326961950871	0.9522508880511253	0.0	0.8082290583913642	0.7348839828529179	0.0	0.7943350707395324	0.5241296139708079	0.0	0.8404961727688919	0.46052551923516377	0.0	0.7997656937951623	0.45443149943234484	0.0	0.7823115567751342	0.49305782517946295	0.0	0.921673987501538	0.959531244024998	0.0	0.9474679255844862	0.7569009605270777	0.0	0.9578432629135438	0.5676284540712925	0.0	1.0667562216488795	0.5252015438099839	0.0	1.0568352105168597	0.5351716051848523	0.0	0.9398290864027569	0.5276474833481941	0.0	0.8432063812507392	1.2898506076029388	0.0	0.894636641807211	1.4277265049267938	0.0	0.9302066122892974	1.346676223349399	0.0	0.7464764406237082	1.241180448709026	0.0	0.7076432655975939	1.0862825643489713	0.0	0.7491164086177149	0.9680197870274064	0.0	0.9042503608129201	1.2519320283859443	0.0	0.9063722037765007	1.1212783004121618	0.0	0.8343089217659472	1.019152737836495	0.0
81	2.7	0.8654581348842677	0.9595261291111652	0.0	0.8145388271625853	0.9527105972340513	0.0	0.8064972682969265	0.7344329395568661	0.0	0.7937902011454602	0.5236800184934975	0.0	0.8399418503429346	0.46143948520703637	0.0	0.8003937048130296	0.45485391355289684	0.0	0.781742750137135	0.49268091721218743	0.0	0.9182227649783248	0.960685807190882	0.0	0.9478164382656621	0.7586010206801599	0.0	0.9582414413583107	0.5682598485429398	0.0	1.0652476691508217	0.525720198652205	0.0	1.0561885624003482	0.5354704574021977	0.0	0.9411082572211443	0.5279658814928183	0.0	0.8381091346205964	1.2907116245565524	0.0	0.8897516811399094	1.4282715903216585	0.0	0.9252562502889454	1.3487687684341416	0.0	0.7408412383366896	1.2405143089503587	0.0	0.7023182060020547	1.0861120472701598	0.0	0.7448373057769762	0.9684905791225064	0.0	0.9007473826569078	1.2523611278958084	0.0	0.9006831438768248	1.1223042253973903	0.0	0.8281680828296827	1.0174133825796778	0.0
82	2.7333333333333334	0.8612720370598245	0.9592847869759664	0.0	0.8094038699635411	0.9499901731391821	0.0	0.8030443331825275	0.7321209544188665	0.0	0.792494811807084	0.5248622696059846	0.0	0.8385040793428357	0.4631078790969412	0.0	0.8006138265633234	0.45612134086837214	0.0	0.7800871687853946	0.4934475074123927	0.0	0.9140122322463559	0.9593539326263318	0.0	0.9484657379391506	0.7576706427072544	0.0	0.9590263709765366	0.5693946937875676	0.0	1.0605086048717407	0.5252465627252603	0.0	1.0533685053391502	0.5351564251389328	0.0	0.9419360347313387	0.5284514998817595	0.0	0.8324231235336644	1.291186477469083	0.0	0.8830533560743841	1.4276497638230259	0.0	0.919101750857723	1.349006842823122	0.0	0.7339656884348725	1.2402662117080403	0.0	0.6971109761086002	1.0863670499310236	0.0	0.7390130339065122	0.9714407106017091	0.0	0.8971387185008567	1.2525187387894405	0.0	0.8973530325070034	1.1214559630716425	0.0	0.8215789838784685	1.0166439325251686	0.0
83	2.7666666666666666	0.8553991026734238	0.9596536576535081	0.0	0.8027403518165845	0.9485093129371756	0.0	0.7977517788902312	0.7311699016025881	0.0	0.7905919961385665	0.5272532025838513	0.0	0.8368618543367907	0.4651920370038997	0.0	0.7995625747290035	0.45806311691185875	0.0	0.7781804051465507	0.49595685401453504	0.0	0.9083277873572624	0.9594508481176207	0.0	0.9500183303839113	0.7595853943548024	0.0	0.9598066200216419	0.5711993166622751	0.0	1.056566332280622	0.5231454517206763	0.0	1.051558910362822	0.5335332509134019	0.0	0.9421377240479482	0.5302215845920907	0.0	0.8265103058700114	1.2913552310372225	0.0	0.8753171389272372	1.4280070271506546	0.0	0.9119297066092213	1.349517624797533	0.0	0.7262004225601977	1.2408472690485128	0.0	0.6908039957371229	1.086506884144841	0.0	0.73141120991925	0.97548904649558	0.0	0.8929601794645241	1.252934793194164	0.0	0.8959324461888497	1.1198948900574177	0.0	0.8232222156854495	1.0179329782470223	0.0
84	2.8	0.8488974240119467	0.9601906425474512	0.0	0.7958491762894452	0.9479150508485482	0.0	0.7919259682718754	0.7311611335084669	0.0	0.7887282736802945	0.5282869706787456	0.0	0.8363881982677177	0.46608544219901704	0.0	0.7992501903010129	0.4592352524513711	0.0	0.7767600176533396	0.4975654691860794	0.0	0.9025169559692153	0.9602152214657103	0.0	0.9539959132682531	0.7665307355192731	0.0	0.9607997414519434	0.5741901911365599	0.0	1.0556628346265733	0.5211880813480327	0.0	1.05151203187204	0.5320879692195737	0.0	0.94251835616079	0.5340592079643676	0.0	0.8200052841984793	1.291194079635974	0.0	0.8671775372900593	1.4285219995690155	0.0	0.9042402274560961	1.3494850721479206	0.0	0.7176750543400046	1.2411456356306145	0.0	0.6826225021552702	1.0853904748934846	0.0	0.7231995691897519	0.9762472708351344	0.0	0.8876927524658909	1.2544130261699895	0.0	0.8956357427136952	1.1197818146116967	0.0	0.8417283711941632	1.0211057510810957	0.0
85	2.8333333333333335	0.8432104939605564	0.9595699960110832	0.0	0.7897557640838462	0.946461799124089	0.0	0.7865689502352156	0.7307687182497395	0.0	0.7873614013605905	0.5271881170404666	0.0	0.8365137085593064	0.4650545725700346	0.0	0.8004495008623388	0.4590917174124055	0.0	0.775886589563434	0.4968844226943072	0.0	0.8980207600454487	0.9598719844029405	0.0	0.961006258162954	0.7755275590413011	0.0	0.962623116526118	0.5781952807825729	0.0	1.0566893478122596	0.5211296987916386	0.0	1.051654205794151	0.5325188308232582	0.0	0.9433233413991977	0.5391545562624719	0.0	0.8126700060112473	1.2897697703691549	0.0	0.8596541723802452	1.4274522218918257	0.0	0.8960930979243951	1.346742614323518	0.0	0.7079833065960167	1.239351877284581	0.0	0.6732058171857399	1.082143420244853	0.0	0.7156891272081921	0.9718742358102688	0.0	0.8828118789621233	1.2564080486006433	0.0	0.8967417162620601	1.1206483787263068	0.0	0.8696738376926906	1.0240091466217978	0.0
